<svg viewBox="0 0 87 54" fill="none" xmlns="http://www.w3.org/2000/svg">
<g clip-path="url(#clip0_696_1192)">
<path d="M0.488525 53.6928L3.7416 45.8098H4.78077L7.98866 53.6928H7.04962L6.06539 51.2152H2.3776L1.38239 53.6928H0.488525ZM2.67922 50.4722H5.76377L4.23249 46.6217L2.67922 50.4722Z" fill="currentColor"/>
<path d="M16.1823 49.7522C16.1823 50.3452 16.0663 50.9012 15.8355 51.4191C15.6047 51.937 15.2909 52.3799 14.8965 52.7477L15.7232 53.7503L14.8403 53.8745L14.292 53.2102C13.9868 53.3985 13.6509 53.5461 13.2858 53.6556C12.9207 53.7638 12.5446 53.8192 12.1563 53.8192C11.597 53.8192 11.0707 53.7134 10.5749 53.5043C10.0792 53.2939 9.65055 53.0073 9.2891 52.6431C8.92765 52.279 8.64312 51.8472 8.43431 51.3478C8.2255 50.8483 8.1217 50.3169 8.1217 49.7547C8.1217 49.1925 8.2255 48.6611 8.43431 48.1616C8.64312 47.6622 8.92765 47.2304 9.2891 46.8662C9.65055 46.5021 10.0792 46.2155 10.5749 46.0051C11.0707 45.7948 11.5982 45.6902 12.1563 45.6902C12.7143 45.6902 13.2406 45.796 13.7328 46.0051C14.2249 46.2155 14.651 46.5021 15.0125 46.8662C15.374 47.2304 15.6585 47.6622 15.8673 48.1616C16.0761 48.6611 16.1799 49.1925 16.1799 49.7547L16.1823 49.7522ZM13.5215 51.103L14.3604 52.1166C14.6584 51.8165 14.8916 51.4634 15.0589 51.0587C15.2262 50.6527 15.3105 50.2185 15.3105 49.7522C15.3105 49.286 15.2286 48.864 15.065 48.463C14.9014 48.062 14.6791 47.7163 14.3995 47.4272C14.1199 47.1381 13.7865 46.9093 13.3994 46.7408C13.0123 46.5722 12.5983 46.4873 12.1587 46.4873C11.7191 46.4873 11.2942 46.5722 10.9071 46.7408C10.52 46.9093 10.1866 47.1393 9.90699 47.4272C9.62735 47.7163 9.40633 48.062 9.24147 48.463C9.07784 48.8653 8.99603 49.2946 8.99603 49.7522C8.99603 50.2098 9.07784 50.6379 9.24147 51.0353C9.4051 51.4339 9.62735 51.7783 9.90699 52.0711C10.1866 52.3639 10.52 52.5952 10.9071 52.7637C11.2942 52.9322 11.7118 53.0171 12.1587 53.0171C12.4567 53.0171 12.74 52.9802 13.0086 52.9039C13.2773 52.8289 13.5264 52.7194 13.7572 52.5767L12.6399 51.237L13.5227 51.1017L13.5215 51.103Z" fill="currentColor"/>
<path d="M23.8389 50.3602C23.8389 51.4108 23.5458 52.2498 22.9609 52.8772C22.376 53.5046 21.592 53.817 20.6078 53.817C19.6236 53.817 18.8311 53.5058 18.2498 52.8821C17.6686 52.2596 17.3779 51.4182 17.3779 50.3602V45.811H18.2388V50.3602C18.2388 51.1635 18.455 51.8069 18.8872 52.2916C19.3195 52.7763 19.8934 53.0174 20.609 53.0174C21.3246 53.0174 21.8985 52.7751 22.3308 52.2916C22.7631 51.8069 22.9792 51.1635 22.9792 50.3602V45.811H23.8401V50.3602H23.8389Z" fill="currentColor"/>
<path d="M24.2968 53.6928L27.5498 45.8098H28.589L31.7969 53.6928H30.8578L29.8736 51.2152H26.1846L25.1894 53.6928H24.2955H24.2968ZM26.4874 50.4722H29.572L28.0407 46.6217L26.4874 50.4722Z" fill="currentColor"/>
<path d="M35.1049 53.6928V45.8098H35.9657V52.9153H40.6268V53.6928H35.1049Z" fill="currentColor"/>
<path d="M48.8095 49.7522C48.8095 50.3157 48.7057 50.8459 48.4969 51.3453C48.2881 51.8448 48.0036 52.2766 47.6421 52.6407C47.2807 53.0048 46.8545 53.2915 46.3624 53.5018C45.8703 53.7122 45.3452 53.8167 44.7859 53.8167C44.2267 53.8167 43.6991 53.7109 43.2046 53.5018C42.7088 53.2915 42.2802 53.0048 41.9187 52.6407C41.5573 52.2766 41.2728 51.8448 41.0639 51.3453C40.8551 50.8459 40.7513 50.3144 40.7513 49.7522C40.7513 49.1901 40.8551 48.6586 41.0639 48.1592C41.2728 47.6597 41.5573 47.2279 41.9187 46.8638C42.2802 46.4997 42.7088 46.213 43.2046 46.0027C43.7004 45.7923 44.2279 45.6877 44.7859 45.6877C45.344 45.6877 45.8703 45.7935 46.3624 46.0027C46.8545 46.213 47.2807 46.4997 47.6421 46.8638C48.0036 47.2279 48.2881 47.6597 48.4969 48.1592C48.7057 48.6586 48.8095 49.1901 48.8095 49.7522ZM47.9376 49.7522C47.9376 49.2946 47.8558 48.8641 47.6922 48.463C47.5286 48.062 47.3063 47.7163 47.0267 47.4272C46.7471 47.1381 46.4137 46.9093 46.0266 46.7408C45.6395 46.5722 45.2255 46.4874 44.7859 46.4874C44.3463 46.4874 43.9214 46.5722 43.5343 46.7408C43.1472 46.9093 42.8138 47.1394 42.5342 47.4272C42.2545 47.7163 42.0335 48.062 41.8687 48.463C41.705 48.8653 41.6232 49.2946 41.6232 49.7522C41.6232 50.2099 41.705 50.638 41.8687 51.0353C42.0323 51.4339 42.2545 51.7783 42.5342 52.0711C42.8138 52.3639 43.1472 52.5952 43.5343 52.7637C43.9214 52.9322 44.339 53.0171 44.7859 53.0171C45.2329 53.0171 45.6395 52.9322 46.0266 52.7637C46.4137 52.5952 46.7471 52.3639 47.0267 52.0711C47.3063 51.7783 47.5274 51.4327 47.6922 51.0353C47.8558 50.638 47.9376 50.2099 47.9376 49.7522Z" fill="currentColor"/>
<path d="M50.1614 53.6928V45.8098H53.5146C54.2741 45.8098 54.8896 46.0177 55.3585 46.4347C55.8274 46.8518 56.0631 47.398 56.0631 48.0733C56.0631 48.5912 55.9116 49.0378 55.61 49.413C55.3084 49.7882 54.9042 50.0478 54.3975 50.1905L56.1522 53.6928H55.2022L53.5256 50.3036H51.0223V53.6928H50.1614ZM53.4584 46.5873H51.021V49.5717H53.4584C53.9798 49.5717 54.4011 49.4351 54.721 49.1608C55.041 48.8865 55.2022 48.5248 55.2022 48.0746C55.2022 47.6243 55.0422 47.2639 54.721 46.9932C54.4011 46.7226 53.9798 46.5885 53.4584 46.5885V46.5873Z" fill="currentColor"/>
<path d="M57.3708 53.6928V45.8098H62.9709V46.575H58.2317V49.3343H61.3285V50.0884H58.2317V52.9264H63.0161V53.6915H57.3708V53.6928Z" fill="currentColor"/>
<path d="M64.2567 45.811H65.1176L69.8238 52.2067V45.811H70.6395V53.694H69.88L65.0736 47.1286V53.694H64.2579V45.811H64.2567Z" fill="currentColor"/>
<path d="M71.7679 53.6928V53.074L76.7416 46.5762H71.8119V45.811H77.8699V46.4298L72.8731 52.9276H77.959V53.6928H71.7667H71.7679Z" fill="currentColor"/>
<path d="M86.4885 49.7522C86.4885 50.3157 86.3847 50.8459 86.1759 51.3453C85.9671 51.8448 85.6825 52.2766 85.3211 52.6407C84.9596 53.0048 84.5335 53.2915 84.0413 53.5018C83.5492 53.7122 83.0242 53.8167 82.4649 53.8167C81.9056 53.8167 81.3793 53.7109 80.8835 53.5018C80.3878 53.2915 79.9591 53.0048 79.5977 52.6407C79.2362 52.2766 78.9517 51.8448 78.7429 51.3453C78.5341 50.8459 78.4303 50.3144 78.4303 49.7522C78.4303 49.1901 78.5341 48.6586 78.7429 48.1592C78.9517 47.6597 79.2362 47.2279 79.5977 46.8638C79.9591 46.4997 80.3878 46.213 80.8835 46.0027C81.3793 45.7923 81.9068 45.6877 82.4649 45.6877C83.0229 45.6877 83.5492 45.7935 84.0413 46.0027C84.5335 46.213 84.9596 46.4997 85.3211 46.8638C85.6825 47.2279 85.9671 47.6597 86.1759 48.1592C86.3847 48.6586 86.4885 49.1901 86.4885 49.7522ZM85.6166 49.7522C85.6166 49.2946 85.5348 48.8641 85.3712 48.463C85.2075 48.062 84.9853 47.7163 84.7056 47.4272C84.426 47.1381 84.0926 46.9093 83.7055 46.7408C83.3184 46.5722 82.9045 46.4874 82.4649 46.4874C82.0253 46.4874 81.6003 46.5722 81.2132 46.7408C80.8261 46.9093 80.4928 47.1394 80.2131 47.4272C79.9335 47.7163 79.7113 48.062 79.5476 48.463C79.384 48.8653 79.3022 49.2946 79.3022 49.7522C79.3022 50.2099 79.384 50.638 79.5476 51.0353C79.7113 51.4339 79.9335 51.7783 80.2131 52.0711C80.4928 52.3639 80.8261 52.5952 81.2132 52.7637C81.6003 52.9322 82.018 53.0171 82.4649 53.0171C82.9118 53.0171 83.3184 52.9322 83.7055 52.7637C84.0926 52.5952 84.426 52.3639 84.7056 52.0711C84.9853 51.7783 85.2063 51.4327 85.3712 51.0353C85.5348 50.638 85.6166 50.2099 85.6166 49.7522Z" fill="currentColor"/>
<path d="M42.5807 14.4954L42.2131 14.269L41.8455 14.4954C40.1347 15.5497 39.1139 17.3396 39.1139 19.2857C39.1139 21.2318 40.1348 23.0217 41.8468 24.076L42.2143 24.3024L42.5819 24.076C44.2927 23.0217 45.3135 21.2318 45.3135 19.2857C45.3135 17.3396 44.2927 15.5497 42.5819 14.4954H42.5807ZM42.2131 23.0796C40.9212 22.2037 40.1555 20.8013 40.1555 19.2845C40.1555 17.7677 40.9212 16.3653 42.2131 15.4894C43.505 16.3653 44.2707 17.7677 44.2707 19.2845C44.2707 20.8013 43.5063 22.2037 42.2131 23.0796Z" fill="currentColor"/>
<path d="M50.8561 12.741C50.3152 11.854 49.8047 11.0188 49.3969 10.3077L44.1998 1.24132C44.1522 1.15767 44.0826 1.08386 43.9922 1.03219C43.7236 0.875962 43.3792 0.969455 43.2241 1.24132L38.0441 10.2794L38.027 10.3077C37.6192 11.0188 37.11 11.854 36.569 12.7398C34.1622 16.6825 31.1436 21.6278 31.1436 25.8374C31.1436 29.3336 32.5503 32.4988 34.8252 34.7894C37.0452 37.0247 40.0907 38.4246 43.4622 38.491V31.3659L43.0593 31.5172C42.8517 31.5959 42.6416 31.6586 42.4304 31.7128V37.2818C39.7842 36.9853 37.4091 35.7822 35.6239 33.9837C33.5541 31.8985 32.2731 29.0174 32.2731 25.835C32.2731 21.9464 35.1989 17.1536 37.53 13.3327C38.0539 12.4753 38.5472 11.6658 39.0015 10.8736C39.0076 10.8625 39.0137 10.8527 39.0186 10.8416L43.7126 2.65603L48.4224 10.8748V10.8773C48.8755 11.6695 49.37 12.479 49.8939 13.3376C52.225 17.1573 55.1508 21.9501 55.1508 25.8387C55.1508 29.0211 53.8711 31.9022 51.8001 33.9874C50.1723 35.6272 48.0561 36.7725 45.6908 37.187V27.1623C45.4795 27.1082 45.2695 27.0442 45.0619 26.9655L44.6589 26.813V38.4603C47.752 38.2278 50.5338 36.8721 52.5987 34.7907C54.8724 32.5001 56.2804 29.3348 56.2804 25.8387C56.2804 21.6302 53.2617 16.6849 50.8561 12.7422V12.741Z" fill="currentColor"/>
<path d="M35.5751 25.6076L35.6251 25.177L36.0293 25.0245C37.9074 24.3184 39.9369 24.6136 41.4572 25.8143C42.9775 27.0149 43.7456 28.9291 43.5136 30.9355L43.4635 31.366L43.0605 31.5174C41.1825 32.2235 39.153 31.9282 37.6327 30.7276C36.1124 29.5269 35.3443 27.6128 35.5763 25.6064L35.5751 25.6076ZM42.5074 30.6132C42.6209 29.0484 41.9969 27.5759 40.8125 26.6409C39.628 25.706 38.06 25.4464 36.5788 25.9311C36.4653 27.4959 37.0893 28.9684 38.2737 29.9034C39.4582 30.8383 41.0262 31.0979 42.5074 30.6144V30.6132Z" fill="currentColor"/>
<path d="M52.5536 21.0645L52.5047 20.6339L52.1018 20.4814C50.2237 19.7728 48.1942 20.0643 46.6727 21.2625C45.1511 22.4607 44.3794 24.3736 44.609 26.3813L44.659 26.8118L45.062 26.9644C46.9401 27.673 48.9696 27.3814 50.4911 26.1832C52.0126 24.985 52.7844 23.0721 52.5548 21.0645H52.5536ZM45.6139 26.0602C45.5028 24.4954 46.1293 23.0241 47.315 22.0904C48.5007 21.1567 50.0698 20.8996 51.5498 21.3868C51.6609 22.9516 51.0345 24.4228 49.8488 25.3565C48.6631 26.2902 47.0952 26.5474 45.6139 26.0614V26.0602Z" fill="currentColor"/>
</g>
<defs>
<clipPath id="clip0_696_1192">
<rect width="86" height="52.916" fill="white" transform="translate(0.488525 0.957275)"/>
</clipPath>
</defs>
</svg>
