<svg width="67" height="54" viewBox="0 0 67 54" fill="none" xmlns="http://www.w3.org/2000/svg">
<g clip-path="url(#clip0_696_344)">
<path d="M0.488525 53.6925L3.7416 45.8096H4.78077L7.98866 53.6925H7.04962L6.06539 51.215H2.3776L1.38239 53.6925H0.488525ZM2.67922 50.4719H5.76377L4.23249 46.6215L2.67922 50.4719Z" fill="#9C9D9C"/>
<path d="M16.1823 49.752C16.1823 50.3449 16.0663 50.901 15.8355 51.4189C15.6047 51.9368 15.2909 52.3796 14.8965 52.7475L15.7232 53.75L14.8403 53.8743L14.292 53.21C13.9868 53.3982 13.6509 53.5458 13.2858 53.6553C12.9207 53.7636 12.5446 53.8189 12.1563 53.8189C11.597 53.8189 11.0707 53.7131 10.5749 53.504C10.0792 53.2937 9.65055 53.007 9.2891 52.6429C8.92765 52.2788 8.64312 51.847 8.43431 51.3475C8.2255 50.8481 8.1217 50.3166 8.1217 49.7544C8.1217 49.1923 8.2255 48.6608 8.43431 48.1614C8.64312 47.6619 8.92765 47.2301 9.2891 46.866C9.65055 46.5019 10.0792 46.2152 10.5749 46.0049C11.0707 45.7945 11.5982 45.6899 12.1563 45.6899C12.7143 45.6899 13.2406 45.7957 13.7328 46.0049C14.2249 46.2152 14.651 46.5019 15.0125 46.866C15.374 47.2301 15.6585 47.6619 15.8673 48.1614C16.0761 48.6608 16.1799 49.1923 16.1799 49.7544L16.1823 49.752ZM13.5215 51.1027L14.3604 52.1164C14.6584 51.8162 14.8916 51.4632 15.0589 51.0584C15.2262 50.6525 15.3105 50.2182 15.3105 49.752C15.3105 49.2857 15.2286 48.8638 15.065 48.4628C14.9014 48.0617 14.6791 47.716 14.3995 47.4269C14.1199 47.1379 13.7865 46.909 13.3994 46.7405C13.0123 46.572 12.5983 46.4871 12.1587 46.4871C11.7191 46.4871 11.2942 46.572 10.9071 46.7405C10.52 46.909 10.1866 47.1391 9.90699 47.4269C9.62735 47.716 9.40633 48.0617 9.24147 48.4628C9.07784 48.865 8.99603 49.2944 8.99603 49.752C8.99603 50.2096 9.07784 50.6377 9.24147 51.035C9.4051 51.4336 9.62735 51.7781 9.90699 52.0709C10.1866 52.3636 10.52 52.5949 10.9071 52.7634C11.2942 52.932 11.7118 53.0169 12.1587 53.0169C12.4567 53.0169 12.74 52.98 13.0086 52.9037C13.2773 52.8286 13.5264 52.7192 13.7572 52.5765L12.6399 51.2368L13.5227 51.1015L13.5215 51.1027Z" fill="#9C9D9C"/>
<path d="M23.8389 50.3597C23.8389 51.4103 23.5458 52.2493 22.9609 52.8767C22.376 53.5041 21.592 53.8165 20.6078 53.8165C19.6236 53.8165 18.8311 53.5053 18.2498 52.8816C17.6686 52.2591 17.3779 51.4177 17.3779 50.3597V45.8105H18.2388V50.3597C18.2388 51.163 18.455 51.8064 18.8872 52.2911C19.3195 52.7758 19.8934 53.0169 20.609 53.0169C21.3246 53.0169 21.8985 52.7746 22.3308 52.2911C22.7631 51.8064 22.9792 51.163 22.9792 50.3597V45.8105H23.8401V50.3597H23.8389Z" fill="#9C9D9C"/>
<path d="M24.2968 53.6925L27.5498 45.8096H28.589L31.7969 53.6925H30.8578L29.8736 51.215H26.1846L25.1894 53.6925H24.2955H24.2968ZM26.4874 50.4719H29.572L28.0407 46.6215L26.4874 50.4719Z" fill="#9C9D9C"/>
<path d="M35.1049 53.6925V45.8096H35.9657V52.9151H40.6268V53.6925H35.1049Z" fill="#9C9D9C"/>
<path d="M48.8095 49.752C48.8095 50.3154 48.7057 50.8456 48.4969 51.3451C48.2881 51.8445 48.0036 52.2763 47.6421 52.6405C47.2807 53.0046 46.8545 53.2912 46.3624 53.5016C45.8703 53.7119 45.3452 53.8165 44.7859 53.8165C44.2267 53.8165 43.6991 53.7107 43.2046 53.5016C42.7088 53.2912 42.2802 53.0046 41.9187 52.6405C41.5573 52.2763 41.2728 51.8445 41.0639 51.3451C40.8551 50.8456 40.7513 50.3142 40.7513 49.752C40.7513 49.1898 40.8551 48.6584 41.0639 48.1589C41.2728 47.6595 41.5573 47.2277 41.9187 46.8636C42.2802 46.4994 42.7088 46.2128 43.2046 46.0024C43.7004 45.7921 44.2279 45.6875 44.7859 45.6875C45.344 45.6875 45.8703 45.7933 46.3624 46.0024C46.8545 46.2128 47.2807 46.4994 47.6421 46.8636C48.0036 47.2277 48.2881 47.6595 48.4969 48.1589C48.7057 48.6584 48.8095 49.1898 48.8095 49.752ZM47.9376 49.752C47.9376 49.2944 47.8558 48.8638 47.6922 48.4628C47.5286 48.0617 47.3063 47.7161 47.0267 47.427C46.7471 47.1379 46.4137 46.9091 46.0266 46.7405C45.6395 46.572 45.2255 46.4871 44.7859 46.4871C44.3463 46.4871 43.9214 46.572 43.5343 46.7405C43.1472 46.9091 42.8138 47.1391 42.5342 47.427C42.2545 47.7161 42.0335 48.0617 41.8687 48.4628C41.705 48.865 41.6232 49.2944 41.6232 49.752C41.6232 50.2096 41.705 50.6377 41.8687 51.0351C42.0323 51.4336 42.2545 51.7781 42.5342 52.0709C42.8138 52.3637 43.1472 52.5949 43.5343 52.7635C43.9214 52.932 44.339 53.0169 44.7859 53.0169C45.2329 53.0169 45.6395 52.932 46.0266 52.7635C46.4137 52.5949 46.7471 52.3637 47.0267 52.0709C47.3063 51.7781 47.5274 51.4324 47.6922 51.0351C47.8558 50.6377 47.9376 50.2096 47.9376 49.752Z" fill="#9C9D9C"/>
<path d="M50.1614 53.6925V45.8096H53.5146C54.2741 45.8096 54.8896 46.0175 55.3585 46.4345C55.8274 46.8515 56.0631 47.3977 56.0631 48.0731C56.0631 48.591 55.9116 49.0376 55.61 49.4128C55.3084 49.788 54.9042 50.0475 54.3975 50.1902L56.1522 53.6925H55.2022L53.5256 50.3034H51.0223V53.6925H50.1614ZM53.4584 46.587H51.021V49.5714H53.4584C53.9798 49.5714 54.4011 49.4349 54.721 49.1606C55.041 48.8862 55.2022 48.5246 55.2022 48.0743C55.2022 47.6241 55.0422 47.2636 54.721 46.993C54.4011 46.7224 53.9798 46.5883 53.4584 46.5883V46.587Z" fill="#9C9D9C"/>
<path d="M57.3708 53.6925V45.8096H62.9709V46.5747H58.2317V49.334H61.3285V50.0881H58.2317V52.9261H63.0161V53.6913H57.3708V53.6925Z" fill="#9C9D9C"/>
<path d="M64.2567 45.8105H65.1176L69.8238 52.2062V45.8105H70.6395V53.6935H69.88L65.0736 47.1281V53.6935H64.2579V45.8105H64.2567Z" fill="#9C9D9C"/>
<path d="M42.5807 14.4949L42.2131 14.2686L41.8455 14.4949C40.1347 15.5492 39.1139 17.3391 39.1139 19.2852C39.1139 21.2313 40.1348 23.0212 41.8468 24.0755L42.2143 24.3019L42.5819 24.0755C44.2927 23.0212 45.3135 21.2313 45.3135 19.2852C45.3135 17.3391 44.2927 15.5492 42.5819 14.4949H42.5807ZM42.2131 23.0791C40.9212 22.2032 40.1555 20.8008 40.1555 19.284C40.1555 17.7672 40.9212 16.3648 42.2131 15.4889C43.505 16.3648 44.2707 17.7672 44.2707 19.284C44.2707 20.8008 43.5063 22.2032 42.2131 23.0791Z" fill="#9C9D9C"/>
<path d="M50.8561 12.741C50.3152 11.854 49.8047 11.0188 49.3969 10.3077L44.1998 1.24132C44.1522 1.15767 44.0826 1.08386 43.9922 1.03219C43.7236 0.875962 43.3792 0.969455 43.2241 1.24132L38.0441 10.2794L38.027 10.3077C37.6192 11.0188 37.11 11.854 36.569 12.7398C34.1622 16.6825 31.1436 21.6278 31.1436 25.8374C31.1436 29.3336 32.5503 32.4988 34.8252 34.7894C37.0452 37.0247 40.0907 38.4246 43.4622 38.491V31.3659L43.0593 31.5172C42.8517 31.5959 42.6416 31.6586 42.4304 31.7128V37.2818C39.7842 36.9853 37.4091 35.7822 35.6239 33.9837C33.5541 31.8985 32.2731 29.0174 32.2731 25.835C32.2731 21.9464 35.1989 17.1536 37.53 13.3327C38.0539 12.4753 38.5472 11.6658 39.0015 10.8736C39.0076 10.8625 39.0137 10.8527 39.0186 10.8416L43.7126 2.65603L48.4224 10.8748V10.8773C48.8755 11.6695 49.37 12.479 49.8939 13.3376C52.225 17.1573 55.1508 21.9501 55.1508 25.8387C55.1508 29.0211 53.8711 31.9022 51.8001 33.9874C50.1723 35.6272 48.0561 36.7725 45.6908 37.187V27.1623C45.4795 27.1082 45.2695 27.0442 45.0619 26.9655L44.6589 26.813V38.4603C47.752 38.2278 50.5338 36.8721 52.5987 34.7907C54.8724 32.5001 56.2804 29.3348 56.2804 25.8387C56.2804 21.6302 53.2617 16.6849 50.8561 12.7422V12.741Z" fill="#9C9D9C"/>
<path d="M35.5751 25.6073L35.6251 25.1768L36.0293 25.0242C37.9074 24.3181 39.9369 24.6134 41.4572 25.814C42.9775 27.0147 43.7456 28.9288 43.5136 30.9352L43.4635 31.3658L43.0605 31.5171C41.1825 32.2232 39.153 31.928 37.6327 30.7273C36.1124 29.5267 35.3443 27.6125 35.5763 25.6061L35.5751 25.6073ZM42.5074 30.6129C42.6209 29.0482 41.9969 27.5756 40.8125 26.6407C39.628 25.7058 38.06 25.4462 36.5788 25.9309C36.4653 27.4957 37.0893 28.9682 38.2737 29.9031C39.4582 30.8381 41.0262 31.0976 42.5074 30.6142V30.6129Z" fill="#9C9D9C"/>
<path d="M52.5536 21.0645L52.5047 20.6339L52.1018 20.4814C50.2237 19.7728 48.1942 20.0643 46.6727 21.2625C45.1511 22.4607 44.3794 24.3736 44.609 26.3813L44.659 26.8118L45.062 26.9644C46.9401 27.673 48.9696 27.3814 50.4911 26.1832C52.0126 24.985 52.7844 23.0721 52.5548 21.0645H52.5536ZM45.6139 26.0602C45.5028 24.4954 46.1293 23.0241 47.315 22.0904C48.5007 21.1567 50.0698 20.8996 51.5498 21.3868C51.6609 22.9516 51.0345 24.4228 49.8488 25.3565C48.6631 26.2902 47.0952 26.5474 45.6139 26.0614V26.0602Z" fill="#9C9D9C"/>
</g>
<defs>
<clipPath id="clip0_696_344">
<rect width="86" height="52.916" fill="white" transform="translate(0.488525 0.957031)"/>
</clipPath>
</defs>
</svg>
