<svg viewBox="0 0 112 61" fill="none" xmlns="http://www.w3.org/2000/svg">
<g clip-path="url(#clip0_696_184)">
<path d="M25.4103 38.312V46.2145H26.7119V39.7735L29.0679 45.4412H30.4391L32.7951 39.7128V46.2145H34.0967V38.312H32.0979L29.7535 43.9569L27.4091 38.312H25.4103Z" fill="currentColor"/>
<path d="M39.0231 46.2145L39.8187 44.1996H43.4706L44.2662 46.2145H45.6663L42.4818 38.312H40.8577L37.6732 46.2145H39.027H39.0231ZM40.2957 42.9921L41.6495 39.582L42.9917 42.9921H40.2957Z" fill="currentColor"/>
<path d="M48.7929 42.2641C48.7929 44.9008 50.8786 46.3566 52.9565 46.3566C55.4496 46.3566 56.9192 44.4762 56.9192 42.2073C56.9192 42.1049 56.9135 42.0044 56.9077 41.9021H53.3601V43.0868H55.496C55.2893 44.3909 54.4242 45.1359 52.9565 45.1359C51.3671 45.1359 50.1582 43.9682 50.1582 42.2622C50.1582 40.5562 51.3671 39.3886 53.0144 39.3886C53.9124 39.3886 54.6733 39.7563 55.1793 40.3477L56.1352 39.4398C55.4033 38.6379 54.2986 38.1641 53.0144 38.1641C50.5676 38.1641 48.7929 39.8852 48.7929 42.2622V42.2641Z" fill="currentColor"/>
<path d="M62.6007 42.9864V46.2145H63.9023V43.0092L67.0115 38.312H65.4975L63.2631 41.851L61.023 38.312H59.4684L62.6007 42.9864Z" fill="currentColor"/>
<path d="M70.2095 46.2145L71.0052 44.1996H74.657L75.4527 46.2145H76.8527L73.6683 38.312H72.0441L68.8596 46.2145H70.2134H70.2095ZM71.4822 42.9921L72.8359 39.582L74.1781 42.9921H71.4822Z" fill="currentColor"/>
<path d="M81.7174 46.2145V42.8897H82.3798L84.9424 46.2145H86.5549L83.9054 42.8897C85.5411 42.8329 86.5897 41.9363 86.5897 40.598C86.5897 39.1252 85.5874 38.312 83.7335 38.312H80.4158V46.2145H81.7174ZM81.7174 39.5081H83.6987C84.7184 39.5081 85.2359 39.8474 85.2359 40.598C85.2359 41.3487 84.7454 41.7335 83.6987 41.7335H81.7174V39.51V39.5081Z" fill="currentColor"/>
<path d="M3.29071 60.7729C5.06545 60.7729 6.2145 60.1095 6.2145 58.5873C6.2145 57.5751 5.6139 56.8889 4.65025 56.6482C5.47293 56.4075 6.04455 55.8142 6.04455 54.8417C6.04455 53.348 4.85496 52.7661 3.15553 52.7661H0V60.7729H3.29071ZM0.71067 60.1151V57.0273H3.26174C4.59811 57.0273 5.47293 57.4045 5.47293 58.5665C5.47293 59.7284 4.59232 60.117 3.26174 60.117H0.712601L0.71067 60.1151ZM0.71067 56.3695V53.4239H3.13235C4.38182 53.4239 5.29719 53.767 5.29719 54.8872C5.29719 56.0075 4.38761 56.3676 3.13815 56.3676H0.712601L0.71067 56.3695Z" fill="currentColor"/>
<path d="M10.1927 60.7729L11.1853 58.4338H15.4339L16.4265 60.7729H17.1913L13.7596 52.7661H12.8847L9.45306 60.7729H10.1946H10.1927ZM11.4711 57.7704L13.3096 53.4466L15.1481 57.7704H11.4711Z" fill="currentColor"/>
<path d="M20.9802 52.7661V60.7729H21.687V53.966L27.0441 60.7729H27.6794V52.7661H26.9726V59.573L21.6156 52.7661H20.9802Z" fill="currentColor"/>
<path d="M32.4552 52.7661V60.7729H33.1678V57.0785H34.2473L38.0459 60.7729H39.0154L34.8305 56.707L38.7701 52.7661H37.849L34.2608 56.415H33.1697V52.7661H32.4571H32.4552Z" fill="currentColor"/>
<path d="M43.4802 60.7729V57.0728H48.7446V60.7729H49.4572V52.7661H48.7446V56.4093H43.4802V52.7661H42.7676V60.7729H43.4802Z" fill="currentColor"/>
<path d="M53.7483 56.7692C53.7483 59.1708 55.5462 60.8636 57.9331 60.8636C60.32 60.8636 62.1179 59.1708 62.1179 56.7692C62.1179 54.3675 60.32 52.6748 57.9331 52.6748C55.5462 52.6748 53.7483 54.3675 53.7483 56.7692ZM54.4898 56.7692C54.4898 54.7277 55.9961 53.3496 57.9331 53.3496C59.8701 53.3496 61.3706 54.7277 61.3706 56.7692C61.3706 58.8107 59.8643 60.1887 57.9331 60.1887C56.0019 60.1887 54.4898 58.8107 54.4898 56.7692Z" fill="currentColor"/>
<path d="M67.1158 60.1095V52.7661H66.4032V60.7729H71.965V60.1095H67.1158Z" fill="currentColor"/>
<path d="M78.7414 60.7729C81.4605 60.7729 83.1599 59.228 83.1599 56.7695C83.1599 54.311 81.4624 52.7661 78.7414 52.7661H75.7597V60.7729H78.7414ZM76.4704 60.1095V53.4296H78.7414C81.1168 53.4296 82.4126 54.7337 82.4126 56.7695C82.4126 58.8053 81.1168 60.1095 78.7414 60.1095H76.4704Z" fill="currentColor"/>
<path d="M87.451 60.7729H88.1636V52.7661H87.451V60.7729Z" fill="currentColor"/>
<path d="M92.9316 52.7661V60.7729H93.6385V53.966L98.9955 60.7729H99.6309V52.7661H98.9241V59.573L93.567 52.7661H92.9316Z" fill="currentColor"/>
<path d="M103.918 56.7693C103.918 59.3093 105.89 60.8523 108.074 60.8523C110.484 60.8523 112.002 59.097 112.002 56.739V56.5608H108.46V57.173H111.268C111.17 59.0383 109.961 60.2211 108.076 60.2211C106.191 60.2211 104.627 58.8316 104.627 56.7655C104.627 54.6994 106.156 53.3118 108.105 53.3118C109.184 53.3118 110.142 53.7686 110.772 54.5193L111.274 54.0454C110.521 53.1924 109.383 52.6787 108.105 52.6787C105.735 52.6787 103.92 54.3601 103.92 56.7674L103.918 56.7693Z" fill="currentColor"/>
<path fill-rule="evenodd" clip-rule="evenodd" d="M41.2188 15.4689C41.2188 7.45648 47.837 0.960449 56 0.960449C64.163 0.960449 70.7812 7.45648 70.7812 15.4689C70.7812 23.4814 64.163 29.9774 56 29.9774C47.837 29.9774 41.2188 23.4814 41.2188 15.4689ZM52.6147 2.84083C47.9895 4.03123 44.3493 7.60623 43.1346 12.1461L52.6147 2.84083ZM43.1365 18.7937C44.3512 23.3317 47.9914 26.9048 52.6147 28.0952L43.1365 18.7937ZM59.3873 28.0933C64.0105 26.901 67.6507 23.3279 68.8635 18.7899L59.3873 28.0933ZM68.8616 12.1423C67.6469 7.60623 64.0085 4.03502 59.3873 2.84272L68.8616 12.1423ZM57.5024 3.04934C56.672 2.23425 55.328 2.23425 54.4976 3.04934L50.1891 7.2783H61.8089L57.5005 3.04934H57.5024ZM64.3446 9.76525V21.1707L68.6511 16.9418C69.4815 16.1267 69.4815 14.8074 68.6511 13.9923L64.3446 9.76525ZM61.8089 23.6596L57.5024 27.8885C56.672 28.7036 55.328 28.7036 54.4976 27.8885L50.1891 23.6596H61.8089ZM47.6554 21.1745L43.347 16.9456C42.5166 16.1305 42.5166 14.8112 43.347 13.9961L47.6554 9.76715V21.1745ZM49.1366 8.73408H62.8614V22.2038H49.1366V8.73218V8.73408Z" fill="currentColor"/>
</g>
<defs>
<clipPath id="clip0_696_184">
<rect width="112" height="59.9049" fill="white" transform="translate(0 0.960449)"/>
</clipPath>
</defs>
</svg>
