<svg width="75" height="54" viewBox="0 0 75 54" fill="none" xmlns="http://www.w3.org/2000/svg">
<g clip-path="url(#clip0_696_229)">
<path d="M62.3336 21.9121C62.0389 21.5993 61.6847 21.3517 61.2713 21.1736C60.8578 20.9933 60.4003 20.9043 59.901 20.9043C59.4018 20.9043 58.9113 20.9933 58.4978 21.1736C58.0843 21.3539 57.7258 21.5993 57.4267 21.9121C57.1254 22.2248 56.8966 22.5962 56.7383 23.0197C56.5799 23.4454 56.5007 23.9211 56.5007 24.4467C56.5007 24.9723 56.5799 25.4218 56.7383 25.8584C56.8966 26.2949 57.1276 26.6707 57.4267 26.9834C57.7258 27.2962 58.0843 27.5438 58.4978 27.7219C58.9113 27.9021 59.3732 27.9912 59.8834 27.9912C60.3937 27.9912 60.8512 27.9021 61.2537 27.7219C61.6562 27.5438 62.0015 27.2962 62.2918 26.9834C62.5799 26.6707 62.8086 26.2971 62.9714 25.8671C63.1364 25.437 63.2177 24.9636 63.2177 24.4467C63.2177 23.9297 63.143 23.4584 62.9956 23.0262C62.8482 22.5962 62.6261 22.2226 62.3314 21.9099L62.3336 21.9121Z" fill="#9C9D9C"/>
<path d="M0 0.955566V42.1129L37.6716 53.8715L75 42.1129V0.955566H0ZM17.8966 30.1849C17.1202 30.5367 16.2207 30.7148 15.2001 30.7148C14.2478 30.7148 13.3768 30.5671 12.5894 30.2696C11.8021 29.972 11.1092 29.5442 10.5132 28.9838C9.91716 28.4235 9.46628 27.7567 9.16056 26.9857C8.85484 26.2125 8.70088 25.3676 8.70088 24.4489C8.70088 23.5302 8.86144 22.6745 9.18475 21.9122C9.50806 21.1498 9.96994 20.5004 10.5704 19.964C11.1708 19.4253 11.8724 19.0148 12.6708 18.7303C13.4714 18.4436 14.3468 18.3025 15.2991 18.3025C16.1393 18.3025 16.8959 18.4263 17.5711 18.6717C18.2463 18.9193 18.838 19.2451 19.3482 19.6534C19.8585 20.0617 20.3006 20.5417 20.6745 21.089L18.088 22.3987C17.8152 21.9404 17.4589 21.5538 17.0169 21.2389C16.5748 20.9261 16.0029 20.7697 15.2991 20.7697C14.8109 20.7697 14.349 20.8501 13.9135 21.013C13.4758 21.1759 13.0931 21.4191 12.7654 21.7427C12.4377 22.0664 12.176 22.4551 11.9824 22.9025C11.7889 23.3499 11.6921 23.8669 11.6921 24.4489C11.6921 25.031 11.7801 25.5544 11.956 26.0192C12.132 26.484 12.3805 26.8814 12.7038 27.2116C13.0271 27.5417 13.4098 27.7936 13.8519 27.9674C14.294 28.1411 14.7757 28.228 15.2969 28.228C15.739 28.228 16.1283 28.1715 16.4626 28.0608C16.7969 27.95 17.0982 27.798 17.3644 27.6069C17.6305 27.4157 17.8482 27.1899 18.0198 26.9271C18.1891 26.6643 18.3255 26.3819 18.4289 26.0778H15.2815V23.8951H21.3035C21.3475 24.8138 21.2463 25.6869 20.9978 26.5166C20.7471 27.3462 20.3622 28.076 19.8409 28.708C19.3196 29.34 18.6708 29.833 17.8922 30.1871L17.8966 30.1849ZM29.2038 30.3282L28.8475 29.5963L26.217 24.3316L23.5975 29.5485L23.2148 30.3282H19.9663L26.2434 17.8312L32.4875 30.3282H29.2038ZM40.5506 30.3282H32.8966V18.5696H35.7537V27.8762H40.5506V30.3282ZM48.9831 30.3282H41.3292V18.5696H44.1862V27.8762H48.9831V30.3282ZM52.6694 30.3282H49.7595V18.5696H52.6694V30.3282ZM65.8218 26.9596C65.5051 27.7263 65.0564 28.3909 64.478 28.9491C63.8996 29.5094 63.2221 29.9438 62.4458 30.25C61.6694 30.5585 60.816 30.7127 59.8856 30.7127C58.9553 30.7127 58.0953 30.5585 57.3079 30.25C56.5205 29.9416 55.8343 29.5073 55.2493 28.9491C54.6642 28.3887 54.2221 27.7263 53.923 26.9596C53.6217 26.193 53.4721 25.3546 53.4721 24.4489C53.4721 23.5432 53.6305 22.7092 53.9494 21.9534C54.2661 21.1976 54.7148 20.546 55.2933 19.9965C55.8717 19.4471 56.5513 19.0279 57.3343 18.7368C58.1173 18.4458 58.9663 18.3003 59.8856 18.3003C60.805 18.3003 61.6518 18.4458 62.4282 18.7368C63.2045 19.0279 63.8798 19.4492 64.4516 19.9965C65.0235 20.546 65.4743 21.1976 65.8043 21.9534C66.1342 22.7092 66.2969 23.5411 66.2969 24.4489C66.2969 25.3568 66.1386 26.193 65.8196 26.9596H65.8218Z" fill="#9C9D9C"/>
</g>
<defs>
<clipPath id="clip0_696_229">
<rect width="75" height="52.916" fill="white" transform="translate(0 0.955566)"/>
</clipPath>
</defs>
</svg>
