<svg viewBox="0 0 151 28" fill="none" xmlns="http://www.w3.org/2000/svg">
<g clip-path="url(#clip0_696_320)">
<path d="M47.3857 14.507C47.3857 11.1997 46.0523 9.18651 42.8107 9.18651C40.7207 9.18651 39.4405 10.3526 38.6551 11.4109V3.0752C37.2706 3.25943 35.2827 3.36503 34.2643 3.41671C34.7102 3.89303 34.8656 4.5828 34.8656 5.79833V20.3846C34.8656 21.6001 34.7369 22.3685 34.2909 22.8449H39.2297C38.786 22.3685 38.6551 21.6001 38.6551 20.3846V12.4961C38.9702 11.8872 39.8576 11.1457 41.2954 11.1457C42.8906 11.1457 43.6206 12.2849 43.6206 14.0553V20.3824C43.6206 21.5979 43.463 22.3663 43.0459 22.8426H47.9581C47.5388 22.3663 47.3835 21.5979 47.3835 20.3824V14.5047L47.3857 14.507Z" fill="currentColor"/>
<path d="M63.2849 9.4248C61.7696 9.61129 60.3052 9.7416 58.8941 9.82249C59.3401 10.2966 59.4954 10.6673 59.4954 11.8851V19.668C59.0517 20.3825 58.2418 21.07 57.0925 21.07C55.5239 21.07 54.8184 19.9848 54.8184 18.2098V9.4248C53.303 9.61129 51.812 9.7416 50.4276 9.82249C50.8713 10.2966 51.0288 10.6673 51.0288 11.8851V18.1334C51.0288 21.4407 52.4665 23.0292 55.342 23.0292C57.6938 23.0292 58.9762 21.6811 59.7062 20.5398L59.8881 22.8427H63.8862C63.4158 22.3664 63.2849 21.598 63.2849 20.3825V9.4248Z" fill="currentColor"/>
<path d="M79.6302 14.507C79.6302 11.1997 78.2967 9.18652 75.0574 9.18652C72.8099 9.18652 71.4764 10.5369 70.7199 11.676V9.39997C69.3354 9.61117 67.5582 9.71677 66.5376 9.79766C66.9813 10.274 67.1122 10.9368 67.1122 12.1523V20.3846C67.1122 21.6001 66.9813 22.3685 66.5376 22.8449H71.4764C71.0305 22.3685 70.9018 21.6001 70.9018 20.3846V12.4961C71.2146 11.8872 72.1043 11.1457 73.5398 11.1457C75.1351 11.1457 75.865 12.2849 75.865 14.0554V20.3824C75.865 21.5979 75.7097 22.3663 75.2904 22.8426H80.2048C79.7855 22.3663 79.6302 21.5979 79.6302 20.3824V14.5047V14.507Z" fill="currentColor"/>
<path d="M110.67 9.4248C109.154 9.61129 107.69 9.7416 106.279 9.82249C106.723 10.2966 106.88 10.6673 106.88 11.8851V19.668C106.437 20.3825 105.627 21.07 104.477 21.07C102.909 21.07 102.203 19.9848 102.203 18.2098V9.4248C100.686 9.61129 99.1969 9.7416 97.8124 9.82249C98.2562 10.2966 98.4137 10.6673 98.4137 11.8851V18.1334C98.4137 21.4407 99.8514 23.0292 102.727 23.0292C105.079 23.0292 106.359 21.6811 107.091 20.5398L107.273 22.8427H111.271C110.801 22.3664 110.67 21.598 110.67 20.3825V9.4248Z" fill="currentColor"/>
<path d="M117.712 15.2484C117.843 11.8602 118.81 9.95493 120.638 9.95493C122.365 9.95493 123.148 11.7007 123.252 15.2484H117.712ZM120.534 9.18652C116.379 9.18652 113.661 12.2849 113.661 16.1224C113.661 20.3577 116.536 23.0314 120.638 23.0314C123.558 23.0314 125.517 20.8609 125.804 20.1397L125.46 19.7802C123.998 21.371 122.409 21.7754 121.186 21.6249C119.287 21.3889 117.683 19.4949 117.683 16.255H126.673V15.8843C126.673 11.9658 124.845 9.18652 120.532 9.18652" fill="currentColor"/>
<path d="M132.695 11.914C132.695 10.8287 133.478 9.92778 134.994 9.90081C136.509 9.90081 137.006 10.8782 137.033 11.5432C137.033 11.7252 137.021 11.8803 136.999 12.0151C136.855 12.9273 137.534 13.7833 138.446 13.7923C138.455 13.7923 138.461 13.7923 138.47 13.7923C139.358 13.7923 140.17 13.1834 140.17 11.9903C140.17 10.5906 138.705 9.18408 135.1 9.18408C130.995 9.18408 129.114 10.8782 129.114 13.0508C129.114 17.4433 136.615 16.967 136.615 20.4338C136.615 21.546 135.726 22.3122 134.055 22.3122C132.537 22.3122 131.885 21.4382 131.885 20.6181C131.878 20.4586 131.89 20.308 131.914 20.1665C132.067 19.3262 131.526 18.5083 130.685 18.4319C130.616 18.4252 130.545 18.423 130.474 18.423C129.533 18.423 128.748 19.0296 128.748 20.2226C128.748 21.6516 130.37 23.0289 134.053 23.0289C138.078 23.0289 140.352 21.6516 140.352 19.4026C140.352 14.6124 132.693 15.4864 132.693 11.914" fill="currentColor"/>
<path d="M150.347 20.198C149.85 20.753 149.484 21.072 148.647 21.072C147.445 21.072 147.079 20.225 147.079 18.9016V10.6423H150.476V9.63802H147.079V6.16895C145.772 6.35543 144.152 6.48799 143.289 6.53967V18.7151C143.289 21.5731 144.545 23.029 146.87 23.029C148.829 23.029 149.77 22.2628 150.502 20.3553L150.347 20.198Z" fill="currentColor"/>
<path d="M88.8644 9.90127C90.3265 9.90127 91.2429 11.173 91.2429 14.4263C91.2429 17.9471 90.3288 19.1918 88.8644 19.1918C87.4001 19.1918 86.486 17.9471 86.5126 14.4263C86.5126 11.173 87.4533 9.90127 88.8644 9.90127ZM93.202 22.1284C91.112 22.1284 89.8562 23.3214 87.6353 23.3214C86.1709 23.3214 85.3877 22.4744 85.3877 21.497C85.3877 20.8342 85.6229 20.0928 86.4061 19.5109C87.136 19.776 87.9725 19.9063 88.8622 19.9063C92.4166 19.9063 94.8216 17.6056 94.8216 14.4286C94.8216 13.2378 94.44 12.166 93.7544 11.3055C93.5925 11.1033 93.6746 10.7977 93.912 10.6944C94.8505 10.2832 96.073 9.43843 96.1573 7.80724C96.2039 6.88156 95.556 6.03227 94.6419 5.95812C93.6657 5.87948 92.8492 6.65688 92.8492 7.62975C92.8492 7.97351 92.9845 8.3667 93.0267 8.54195C93.1532 9.08792 93.182 9.53504 93.1598 9.89453C93.1421 10.2023 92.8071 10.3776 92.5519 10.2091C91.569 9.55975 90.3088 9.18229 88.8622 9.18229C85.3345 9.18229 82.9294 11.4313 82.9294 14.4241C82.9294 16.5428 83.9211 18.2077 85.5696 19.1356C84.0276 20.0366 82.459 21.333 82.459 23.2383C82.459 25.1436 83.7392 26.6512 86.1709 26.6512C88.8888 26.6512 90.7437 25.3278 92.6007 25.3278C93.4904 25.3278 93.8831 25.9637 93.8831 26.6243C93.8831 26.995 93.7256 27.2309 93.5947 27.4174C93.8055 27.6308 94.0917 27.7095 94.4311 27.7095C95.4762 27.7095 96.4169 26.6243 96.4169 25.0358C96.4169 23.263 95.0834 22.1239 93.202 22.1239" fill="currentColor"/>
<path d="M11.6823 15.4731L9.85189 17.3268C8.84238 18.3491 8.84238 20.0095 9.85189 21.0317C10.8614 22.054 12.501 22.054 13.5105 21.0317C14.52 20.0095 14.52 18.3491 13.5105 17.3268L11.6801 15.4731H11.6823Z" fill="currentColor"/>
<path d="M11.6823 12.8825L13.5127 11.0288C14.5222 10.0065 14.5222 8.34615 13.5127 7.32385C12.5032 6.30155 10.8636 6.30155 9.85409 7.32385C8.84458 8.34615 8.84458 10.0065 9.85409 11.0288L11.6845 12.8825H11.6823Z" fill="currentColor"/>
<path d="M2.09973 16.599C2.75869 16.8753 3.46867 16.8551 4.08104 16.599L9.85189 14.1791L4.08104 11.7593C3.42208 11.483 2.7121 11.5032 2.09973 11.7593C1.48737 12.0155 0.972631 12.5098 0.69973 13.1771C0.42683 13.8466 0.446798 14.5633 0.69973 15.1835C0.952663 15.8036 1.44078 16.3248 2.09973 16.6012" fill="currentColor"/>
<path d="M21.2627 11.7593C20.6015 11.483 19.8937 11.5032 19.2814 11.7593L13.5105 14.1791L19.2814 16.599C19.9403 16.8753 20.6503 16.8551 21.2627 16.599C21.875 16.3428 22.3898 15.8485 22.6627 15.1812C22.9356 14.5117 22.9156 13.7949 22.6627 13.1748C22.4098 12.5547 21.9216 12.0334 21.2627 11.7571" fill="currentColor"/>
<path d="M0.502258 24.9795C0.502258 25.6513 0.755191 26.3209 1.26106 26.8332C1.76692 27.3454 2.42809 27.6016 3.09149 27.6016C3.75488 27.6016 4.41605 27.3454 4.92192 26.8332C5.42778 26.3209 5.68072 25.6513 5.68072 24.9795V18.6548L1.26106 23.1259C0.755191 23.6382 0.502258 24.3078 0.502258 24.9795Z" fill="currentColor"/>
<path d="M17.6839 18.6523V24.9794C17.6839 25.7028 17.9723 26.3566 18.4427 26.833C18.9108 27.307 19.5587 27.6014 20.2731 27.6014C20.9876 27.6014 21.6354 27.307 22.1036 26.833C22.5717 26.3589 22.8624 25.7028 22.8624 24.9794C22.8624 24.2559 22.5739 23.5998 22.1036 23.1257L17.6861 18.6523H17.6839Z" fill="currentColor"/>
<path d="M5.6785 9.70558V3.37857C5.6785 2.65509 5.38785 1.99903 4.9197 1.52495C4.45155 1.05312 3.80591 0.758789 3.09149 0.758789C2.37706 0.758789 1.7292 1.05312 1.26106 1.5272C0.792909 2.00127 0.502258 2.65509 0.502258 3.37857C0.502258 4.10204 0.792909 4.75811 1.26106 5.23218L5.6785 9.70558Z" fill="currentColor"/>
<path d="M22.8579 3.37857C22.8579 2.70902 22.605 2.03722 22.0991 1.52495C21.5955 1.01493 20.9343 0.758789 20.2709 0.758789C19.6075 0.758789 18.9464 1.01493 18.4405 1.5272C17.9346 2.03947 17.6817 2.70902 17.6817 3.38081V9.70558L22.0991 5.23218C22.605 4.71991 22.8579 4.05036 22.8579 3.37857Z" fill="currentColor"/>
</g>
<defs>
<clipPath id="clip0_696_320">
<rect width="150" height="26.9572" fill="white" transform="translate(0.502258 0.758789)"/>
</clipPath>
</defs>
</svg>
