<svg width="51" height="65" viewBox="0 0 51 65" fill="none" xmlns="http://www.w3.org/2000/svg">
<g clip-path="url(#clip0_696_157)">
<path fill-rule="evenodd" clip-rule="evenodd" d="M40.5624 39.3018C39.3807 39.3018 39.2787 39.3616 39.2532 39.6084V46.697C39.2532 47.9409 39.5934 48.6651 40.7491 48.6651C41.2642 48.6682 41.766 48.5036 42.1801 48.1964C42.5937 47.8893 42.8972 47.4559 43.0441 46.9612C43.4434 45.9513 43.626 44.8684 43.5796 43.7834C43.603 42.7924 43.4057 41.8086 43.0017 40.9035C42.7942 40.4282 42.453 40.0234 42.0195 39.7393C41.5865 39.4546 41.08 39.3028 40.5624 39.3018ZM39.8397 38.4498C40.4787 38.4774 41.1106 38.3078 41.6502 37.9643C42.5427 37.3848 42.9339 36.2093 42.9339 34.5565C42.9339 32.2562 42.1602 30.7736 40.6389 30.7736C39.5511 30.7736 39.2874 31.1058 39.2874 31.83V38.041C39.2532 38.3819 39.3807 38.4498 39.8397 38.4498ZM0.000152588 0.963379V52.0816H21.6749C22.9157 52.0816 23.2559 51.7494 23.2559 49.8411V29.7433C23.2559 28.2182 23.1197 27.886 22.6015 27.7153C21.7514 27.4598 21.3179 27.5451 21.3179 26.9998C21.3209 26.9319 21.3377 26.8649 21.3678 26.8041C21.3979 26.7428 21.4403 26.6886 21.4918 26.6446C21.5438 26.6007 21.604 26.568 21.6693 26.5486C21.7345 26.5291 21.8029 26.5235 21.8702 26.5317C22.3547 26.5317 23.3915 26.7019 24.5309 26.7019C25.4321 26.7019 26.2307 26.5317 26.9534 26.5317C27.3701 26.5317 27.5058 26.7019 27.5058 27.0428C27.5058 27.6305 27.2252 27.4261 26.2986 27.7158C25.7799 27.886 25.5422 28.3036 25.5422 29.0707V37.0194C25.5422 38.2464 25.5422 38.3742 25.6442 38.3742C25.9054 38.0977 26.1262 37.7849 26.2986 37.4456C26.9529 36.4316 29.4096 32.8362 30.7269 30.5104C31.1145 29.9139 31.4022 29.2577 31.5771 28.5678C31.5771 28.0138 31.2966 27.7669 30.6081 27.5962C29.9196 27.4261 29.7579 27.3831 29.7579 27.0085C29.7579 26.6339 29.9619 26.5399 30.4123 26.5399C30.9988 26.5399 32.0356 26.7101 32.869 26.7101C33.838 26.7101 34.7392 26.5399 35.1553 26.5399C35.7077 26.5399 35.878 26.7101 35.878 27.0085C35.878 27.5196 35.5633 27.3918 34.8748 27.5538C34.1863 27.7158 33.3871 28.5678 32.1805 30.2206C30.9743 31.832 29.8645 33.5129 28.8568 35.2556C28.3722 36.1076 28.3381 36.2696 28.3381 36.4398C28.4217 36.8701 28.5742 37.2846 28.7884 37.6669C29.3407 38.9364 30.4883 41.6369 33.0383 47.8903C33.4295 48.8532 33.7436 49.5942 33.9905 50.1482C34.7641 51.8864 35.495 52.0821 36.1748 52.0821H50.9986V0.963379H0.000152588ZM18.7 49.5257C18.3007 49.5257 17.782 49.4067 16.6768 49.4067C15.7588 49.4067 14.977 49.5257 14.6026 49.5257C14.2283 49.5257 14.0329 49.4067 14.0329 49.1338C14.0329 48.8016 14.2966 48.7075 14.8831 48.5884C15.4696 48.4694 15.5885 48.1622 15.5885 46.7736C15.5885 43.5958 15.3758 37.4021 15.2825 34.2325C15.2825 33.7812 15.2315 33.6274 15.1636 33.6274C15.0958 33.6274 15.0448 33.7807 14.9765 34.0194C14.7383 34.8713 14.2028 37.4272 12.3331 45.4356C11.5513 48.7668 11.6533 49.4312 11.1769 49.4312C10.9387 49.4312 10.8454 49.1925 10.5904 47.7273C9.9274 44.1493 8.04038 35.7999 7.62371 33.9764C7.57271 33.7378 7.53038 33.61 7.41104 33.61C7.2917 33.61 7.29221 33.8487 7.24937 34.2744C7.08769 36.8303 7.01119 41.6951 7.01119 44.3021C7.01119 46.3295 6.89236 48.3917 7.5977 48.5619C8.02253 48.6809 8.70288 48.6809 8.70288 49.1072C8.709 49.167 8.70084 49.2273 8.67993 49.2835C8.65902 49.3397 8.62536 49.3903 8.58201 49.4312C8.53866 49.4721 8.48613 49.5027 8.42901 49.5206C8.37189 49.5385 8.3112 49.5426 8.25255 49.5329C7.82771 49.5329 7.54721 49.4138 6.6037 49.4138C5.66019 49.4138 5.43936 49.5247 5.15885 49.5247C4.87835 49.5247 4.78502 49.5247 4.78502 49.099C4.78502 48.6733 5.15885 48.707 5.56686 48.5792C6.13653 48.3661 6.22987 47.6675 6.2977 46.2191C6.41653 43.2202 6.6547 35.919 6.6547 33.4398C6.6547 31.7359 6.6547 31.4374 5.94936 31.2928C5.52453 31.1993 5.09918 31.1395 5.09918 30.8073C5.09918 30.4751 5.43069 30.3555 5.68569 30.3555C6.20437 30.3555 6.84187 30.449 7.38554 30.449C7.75937 30.449 8.35455 30.3555 8.67738 30.3555C9.00021 30.3555 9.03438 30.3555 9.14505 30.841C9.99523 34.5386 10.7684 38.2618 11.5931 41.9164C11.7803 42.8282 11.8481 43.4328 12.0434 43.4328C12.2387 43.4328 12.2816 43.1604 12.4682 42.2823C13.3184 38.5848 14.1171 34.8959 14.9673 31.207C15.0861 30.5426 15.2309 30.2952 15.4604 30.2952C15.69 30.2952 16.3785 30.3887 16.8033 30.3887C17.2281 30.3887 17.985 30.2952 18.4266 30.2952C18.4832 30.2916 18.5404 30.2998 18.5934 30.3197C18.6465 30.3397 18.6949 30.3714 18.7352 30.4112C18.7755 30.4511 18.8066 30.5001 18.8265 30.5533C18.8464 30.6064 18.855 30.6637 18.851 30.7204C18.851 31.0526 18.5705 31.1722 17.882 31.2657C17.5759 31.2657 17.4143 31.7175 17.4143 32.9696C17.4143 35.7299 17.7458 43.4829 17.8136 47.1125C17.8136 48.0242 18.0263 48.4412 18.3578 48.5353C19.0208 48.7484 19.2758 48.774 19.2758 49.1148C19.2758 49.4557 19.0631 49.5237 18.698 49.5237L18.7 49.5257ZM44.8118 48.0687C44.4155 48.5435 43.9162 48.9217 43.3521 49.1741C42.7881 49.4266 42.174 49.5467 41.5564 49.5257C40.5619 49.5257 39.6015 49.4067 38.6325 49.4067C37.6635 49.4067 36.72 49.5257 36.2865 49.5257C35.853 49.5257 35.7342 49.4067 35.7342 49.0745C35.7342 48.7423 36.1677 48.6825 36.4569 48.5634C36.9159 48.4101 37.0347 48.1372 37.0347 47.4472V32.6911C37.0347 31.7538 36.7455 31.4216 36.0233 31.3874C35.828 31.3874 35.6832 31.3874 35.6153 31.2938C35.5475 31.2003 35.522 31.2003 35.522 31.0807C35.522 30.7741 35.9555 30.5952 36.5165 30.4419C37.6508 30.0918 38.8319 29.9196 40.0187 29.9308C41.3825 29.8301 42.7391 30.2032 43.8606 30.9872C44.3487 31.4124 44.7317 31.9455 44.979 32.5444C45.2269 33.1429 45.3325 33.7914 45.2886 34.4379C45.3177 35.3584 45.0484 36.2635 44.5216 37.0173C43.9942 37.7716 43.2379 38.3343 42.3647 38.621V38.7146C42.7371 38.8055 43.1012 38.9277 43.4526 39.081C44.9316 39.7796 46.0026 41.2878 46.0026 43.9541C46.075 45.4086 45.6655 46.8462 44.8383 48.0436L44.8128 48.0692L44.8118 48.0687ZM30.8208 48.4096C29.6819 45.7004 28.5768 42.9994 27.4206 40.2478C27.1059 39.4894 26.8341 38.8929 26.6556 38.8929C26.3485 39.1147 26.0884 39.3958 25.8901 39.7188C25.6917 40.0418 25.5591 40.4011 25.4994 40.7757V49.8324C25.4994 51.8174 26.0517 52.0647 26.8509 52.0647H30.7866C31.6368 52.0647 31.9341 51.2128 31.5006 50.0629C31.3818 49.6883 31.1691 49.1598 30.8544 48.3932L30.8203 48.4101L30.8208 48.4096Z" fill="#9C9D9C"/>
<path fill-rule="evenodd" clip-rule="evenodd" d="M7.92206 59.5064H7.40339V61.3314C7.5875 61.3468 7.77212 61.3468 7.95572 61.3314C8.6274 61.3314 9.23073 61.0917 9.23073 60.3977C9.23073 59.7037 8.64423 59.5064 7.92155 59.5064H7.92206ZM19.3798 57.2873C19.2947 57.6129 19.21 57.9982 19.108 58.3325L18.6658 59.7124H20.1362L19.6685 58.3585C19.5497 57.9901 19.4645 57.6129 19.3793 57.2873H19.3798ZM9.06906 57.9558C9.06906 57.4243 8.66106 57.1846 7.99805 57.1846C7.80017 57.1647 7.60076 57.1647 7.40288 57.1846V58.7183H7.93838C8.66922 58.7613 9.06906 58.4352 9.06906 57.9558ZM0.000152588 53.6797V64.8619H51.0002V53.6797H0.000152588ZM9.80041 61.5972C9.17004 62.0137 8.41677 62.1987 7.66706 62.12C7.23814 62.1205 6.80923 62.095 6.38338 62.0428V56.5591C6.88879 56.4717 7.40084 56.4287 7.91339 56.4303C8.48103 56.3817 9.04968 56.5069 9.54541 56.7901C9.73054 56.8948 9.88354 57.0482 9.9886 57.2337C10.0937 57.4197 10.1462 57.6308 10.1406 57.8444C10.1283 58.1199 10.0299 58.3851 9.85855 58.6008C9.6877 58.8159 9.45259 58.9713 9.1884 59.0439C9.50971 59.1032 9.80041 59.2733 10.0116 59.5248C10.2222 59.7767 10.34 60.0941 10.3446 60.4233C10.3487 60.6497 10.2997 60.8735 10.2023 61.0774C10.1049 61.2813 9.96157 61.4592 9.78358 61.5972H9.80041ZM20.8502 62.0597L20.3315 60.4749H18.4787L17.9855 62.0597H16.9058L18.7418 56.4645H20.0765L21.938 62.0597H20.8502ZM33.4386 62.0597H32.2998L30.8039 59.5923C30.4281 58.9698 30.0874 58.3258 29.7839 57.664C29.8263 58.3841 29.8436 59.1211 29.8436 60.0461V62.0428H28.9001V56.4732H30.0986L31.5776 58.8727C31.9433 59.4757 32.2697 60.1028 32.5553 60.7488C32.4834 59.9802 32.4523 59.2079 32.462 58.4352V56.4732H33.4055L33.4397 62.0597H33.4386ZM44.0549 62.0597L42.4397 59.4895L41.921 60.089V62.0597H40.8587V56.4732H41.8955V59.0439C42.0317 58.8297 42.176 58.6325 42.3122 58.4352L43.8167 56.4645H45.1004L43.1282 58.8466L45.2279 62.0597H44.0549Z" fill="#9C9D9C"/>
</g>
<defs>
<clipPath id="clip0_696_157">
<rect width="51" height="63.8985" fill="white" transform="translate(0.000152588 0.963379)"/>
</clipPath>
</defs>
</svg>
