<svg width="43" height="24" viewBox="0 0 43 24" fill="none" xmlns="http://www.w3.org/2000/svg">
<path d="M10.744 20.4352C10.6036 20.902 10.4631 21.3698 10.3226 21.8367C9.44744 20.2785 8.57125 18.7204 7.6961 17.1623C5.92291 14.0059 4.14867 10.8484 2.37444 7.69201C2.08931 7.18501 1.80522 6.67802 1.5201 6.17102C3.16426 5.65901 4.80842 5.14699 6.45258 4.63498C9.44952 3.70231 12.4465 2.76863 15.4434 1.83596C15.7723 1.73356 16.1011 1.63116 16.4299 1.52875C15.765 3.73845 15.1011 5.94714 14.4361 8.15684C13.2051 12.2489 11.974 16.342 10.743 20.4342L10.744 20.4352ZM17.9544 0.770772C18.0241 0.536851 17.9544 0.346101 17.8181 0.215587C17.687 0.0439114 17.4674 -0.0544758 17.1896 0.031864C15.2998 0.620179 13.409 1.20849 11.5193 1.79781C8.52234 2.73048 5.52539 3.66416 2.52845 4.59683C1.83644 4.81268 1.14444 5.02752 0.452435 5.24337C0.0632475 5.36485 -0.116778 5.77346 0.0809378 6.12484C1.19439 8.10564 2.3068 10.0864 3.42025 12.0672C5.19448 15.2236 6.96768 18.3811 8.74191 21.5375C9.14879 22.2613 9.55567 22.9862 9.96254 23.71C10.2227 24.1739 10.9542 24.0484 11.0999 23.5665C11.8731 20.9984 12.6452 18.4293 13.4174 15.8612C14.6484 11.768 15.8794 7.67595 17.1105 3.58284C17.3925 2.64515 17.6745 1.70746 17.9565 0.769768" fill="white"/>
<path d="M33.6446 15.3079C32.8193 13.8007 31.995 12.2925 31.1697 10.7853C29.6169 7.94827 28.0651 5.11125 26.5123 2.27524C26.396 2.0634 26.2807 1.85157 26.1643 1.63973C27.6519 2.08773 29.1406 2.53472 30.6282 2.98272C33.7599 3.92434 36.8916 4.86698 40.0233 5.8086C40.4442 5.93529 40.865 6.06199 41.2858 6.18869C38.9055 9.02875 36.5262 11.8688 34.1459 14.7079C33.9785 14.9075 33.811 15.1082 33.6424 15.3079H33.6446ZM42.5374 5.29268C40.5627 4.69872 38.5869 4.10476 36.6121 3.50979C33.4804 2.56817 30.3487 1.62554 27.217 0.683917C26.5536 0.484241 25.8914 0.285579 25.2281 0.085903C25.1335 0.0271152 25.0258 0.00278917 24.9182 0.00481634C24.5974 -0.0336998 24.368 0.163949 24.2853 0.413291C24.2179 0.562287 24.2135 0.738651 24.3136 0.922109C25.2868 2.69993 26.259 4.47776 27.2322 6.25559C28.7839 9.09261 30.3367 11.9296 31.8895 14.7656C32.2484 15.4204 32.6061 16.0762 32.965 16.731C33.139 17.0492 33.7338 17.1546 33.9861 16.8536C36.573 13.7673 39.1589 10.6809 41.7458 7.59453C42.1057 7.16477 42.4657 6.73501 42.8256 6.30525C43.1268 5.94543 43.042 5.44371 42.5385 5.29268" fill="white"/>
<path d="M10.744 20.4352C10.6036 20.902 10.4631 21.3698 10.3226 21.8367C9.44744 20.2785 8.57125 18.7204 7.6961 17.1623C5.92291 14.0059 4.14867 10.8484 2.37444 7.69201C2.08931 7.18501 1.80522 6.67802 1.5201 6.17102C3.16426 5.65901 4.80842 5.14699 6.45258 4.63498C9.44952 3.70231 12.4465 2.76863 15.4434 1.83596C15.7723 1.73356 16.1011 1.63116 16.4299 1.52875C15.765 3.73845 15.1011 5.94714 14.4361 8.15684C13.2051 12.2489 11.974 16.342 10.743 20.4342L10.744 20.4352ZM17.9544 0.770772C18.0241 0.536851 17.9544 0.346101 17.8181 0.215587C17.687 0.0439114 17.4674 -0.0544758 17.1896 0.031864C15.2998 0.620179 13.409 1.20849 11.5193 1.79781C8.52234 2.73048 5.52539 3.66416 2.52845 4.59683C1.83644 4.81268 1.14444 5.02752 0.452435 5.24337C0.0632475 5.36485 -0.116778 5.77346 0.0809378 6.12484C1.19439 8.10564 2.3068 10.0864 3.42025 12.0672C5.19448 15.2236 6.96768 18.3811 8.74191 21.5375C9.14879 22.2613 9.55567 22.9862 9.96254 23.71C10.2227 24.1739 10.9542 24.0484 11.0999 23.5665C11.8731 20.9984 12.6452 18.4293 13.4174 15.8612C14.6484 11.768 15.8794 7.67595 17.1105 3.58284C17.3925 2.64515 17.6745 1.70746 17.9565 0.769768" fill="white"/>
<path d="M33.6446 15.3079C32.8193 13.8007 31.995 12.2925 31.1697 10.7853C29.6169 7.94827 28.0651 5.11125 26.5123 2.27524C26.396 2.0634 26.2807 1.85157 26.1643 1.63973C27.6519 2.08773 29.1406 2.53472 30.6282 2.98272C33.7599 3.92434 36.8916 4.86698 40.0233 5.8086C40.4442 5.93529 40.865 6.06199 41.2858 6.18869C38.9055 9.02875 36.5262 11.8688 34.1459 14.7079C33.9785 14.9075 33.811 15.1082 33.6424 15.3079H33.6446ZM42.5374 5.29268C40.5627 4.69872 38.5869 4.10476 36.6121 3.50979C33.4804 2.56817 30.3487 1.62554 27.217 0.683917C26.5536 0.484241 25.8914 0.285579 25.2281 0.085903C25.1335 0.0271152 25.0258 0.00278917 24.9182 0.00481634C24.5974 -0.0336998 24.368 0.163949 24.2853 0.413291C24.2179 0.562287 24.2135 0.738651 24.3136 0.922109C25.2868 2.69993 26.259 4.47776 27.2322 6.25559C28.7839 9.09261 30.3367 11.9296 31.8895 14.7656C32.2484 15.4204 32.6061 16.0762 32.965 16.731C33.139 17.0492 33.7338 17.1546 33.9861 16.8536C36.573 13.7673 39.1589 10.6809 41.7458 7.59453C42.1057 7.16477 42.4657 6.73501 42.8256 6.30525C43.1268 5.94543 43.042 5.44371 42.5385 5.29268" fill="white"/>
<path d="M19.7625 16.4956H23.2393C22.6602 16.8225 22.08 17.1502 21.5009 17.4771C20.9218 17.1494 20.3416 16.8225 19.7625 16.4956ZM25.1891 15.5082H17.9721C17.7776 15.4537 17.5959 15.495 17.4589 15.5891C17.0955 15.7848 17.1146 16.2785 17.5163 16.4419L21.18 18.5107C21.3458 18.604 21.655 18.604 21.8207 18.5107C23.0501 17.8164 24.2795 17.1222 25.5089 16.4287C25.9935 16.1555 25.8638 15.5091 25.188 15.5091" fill="white"/>
<path d="M10.4656 22.3637L1.10156 6.00003L16.5247 1.09094L17.0755 1.6364L10.4656 22.3637Z" fill="white"/>
<path d="M19.2788 16.3637H23.6854L21.4821 18L19.2788 16.3637Z" fill="white"/>
<path d="M33.6005 16.3637L25.3381 1.09094L41.8629 6.00003L33.6005 16.3637Z" fill="white"/>
<path d="M19.7625 16.4956H23.2393C22.6602 16.8225 22.08 17.1502 21.5009 17.4771C20.9218 17.1494 20.3416 16.8225 19.7625 16.4956ZM25.1891 15.5082H17.9721C17.7776 15.4537 17.5959 15.495 17.4589 15.5891C17.0955 15.7848 17.1146 16.2785 17.5163 16.4419L21.18 18.5107C21.3458 18.604 21.655 18.604 21.8207 18.5107C23.0501 17.8164 24.2795 17.1222 25.5089 16.4287C25.9935 16.1555 25.8638 15.5091 25.188 15.5091" fill="white"/>
</svg>
