<svg xmlns="http://www.w3.org/2000/svg" fill="none" viewBox="0 0 81 62"><g clip-path="url(#clip0_696_337)"><path fill="currentColor" d="M4.1138 21.0942H3.386C2.3734 21.0942 1.80381 21.3784 1.75635 21.923L1.49529 24.3778H0.981077C0.229539 24.3778 0.00012207 25.2776 0.00012207 26.4694C0.00012207 27.1167 0.205806 27.4008 0.672551 27.4008H1.18676C1.18676 27.4008 0.435223 34.0863 0.435223 34.6546C0.435223 37.0541 1.73262 38.0881 3.79737 38.0881C4.69921 38.0881 5.9175 37.7014 6.07572 36.7463C6.23393 35.8465 6.25767 35.2466 6.25767 35.1992C6.25767 34.9703 6.20229 34.9151 6.05198 34.9151C5.92541 34.9151 5.5615 35.073 5.07103 35.073C4.52517 35.073 4.29576 34.8125 4.29576 34.2205C4.29576 34.1416 5.02356 27.4008 5.02356 27.4008H5.7751C6.7877 27.4008 7.27818 25.8538 7.27818 24.8987C7.27818 24.5356 7.2228 24.3857 6.86681 24.3857H5.34L5.60106 21.9072C5.60106 21.4968 5.15805 21.11 4.12963 21.11"/><path fill="currentColor" d="M11.4631 30.077C11.827 28.4747 12.6497 27.1881 14.2556 27.1881C15.1575 27.1881 15.8062 27.5512 15.8062 28.4036C15.8062 29.1535 15.1337 30.0849 12.6972 30.0849H11.4552L11.4631 30.077ZM19.5401 27.9064C19.5401 26.5645 18.7411 24.165 14.5167 24.165C10.6878 24.165 7.39685 26.4383 7.39685 32.4055C7.39685 35.8942 9.28756 38.0885 13.5041 38.0885C14.9281 38.0885 17.594 37.7017 18.0054 36.281C18.132 35.8705 18.1874 34.3945 18.2111 34.2919C18.2111 33.9288 18.1082 33.9288 18.0054 33.9288C17.7206 33.9288 16.0672 35.0654 13.9946 35.0654C12.4678 35.0654 11.4077 34.5761 11.2811 32.4607C12.0089 32.5633 12.8317 32.6422 13.9708 32.6422C16.534 32.6422 19.5322 31.3478 19.5322 27.9143"/><path fill="currentColor" d="M24.9987 32.271C24.9987 34.0548 25.5683 34.9783 26.7549 34.9783C27.5856 34.9783 28.258 34.2837 28.7722 33.4786C28.8988 32.2631 29.0807 29.7847 29.1836 29.2164C29.239 28.877 29.3102 28.5691 29.4446 27.8982C29.0016 27.5114 28.4637 27.2036 27.7359 27.2036C26.0034 27.2036 24.9908 28.9638 24.9908 32.2631L24.9987 32.271Z"/><path fill="currentColor" d="M50.4798 0.611816C33.6216 0.611816 19.9594 14.2432 19.9594 31.0635C19.9594 47.8837 33.6216 61.5151 50.4798 61.5151C67.338 61.5151 81.0001 47.8837 81.0001 31.0635C81.0001 14.2432 67.338 0.611816 50.4798 0.611816ZM34.0883 36.7386C33.9301 37.6937 32.7197 38.0804 31.81 38.0804C30.2278 38.0804 29.1994 37.5121 28.8355 36.1151C28.1077 37.2517 26.8182 38.1041 25.3151 38.1041C22.8073 38.1041 21.1223 36.1387 21.1223 32.5C21.1223 27.5431 23.4798 24.1807 26.8657 24.1807C28.3371 24.1807 29.4525 25.0331 29.9984 25.5462C30.2832 24.6148 30.3623 24.3543 31.6834 24.3306H31.9919C33.0283 24.3306 33.495 24.5595 33.495 24.9779C33.495 25.0805 32.5378 33.7866 32.5378 34.2207C32.5378 34.8127 32.7672 35.0495 33.3131 35.0495C33.677 35.0495 33.9618 34.8916 34.0646 34.8916C34.2228 34.8916 34.2703 34.9469 34.2703 35.1758C34.2703 35.231 34.2466 35.823 34.0883 36.7228V36.7386ZM55.8276 36.7386C55.6693 37.6937 54.459 38.0804 53.5492 38.0804C51.5319 38.0804 50.4165 37.1254 50.4165 34.8048C50.4165 34.1812 51.0098 28.9718 51.0098 28.6087C51.0098 27.7799 50.6222 27.3142 49.6096 27.3142C48.6524 27.3142 47.8771 28.0641 47.3866 28.7824L46.5876 37.0938C46.5322 37.6384 45.9626 37.9226 44.958 37.9226H44.2301C43.1938 37.9226 42.7587 37.5358 42.7587 37.1175C42.7587 37.1175 43.6131 28.8534 43.6131 28.6008C43.6131 27.772 43.2255 27.3063 42.2129 27.3063C41.2003 27.3063 40.4804 28.0799 39.9899 28.806L39.1592 37.0938C39.1039 37.6384 38.5422 37.9226 37.5296 37.9226H36.8018C35.7654 37.9226 35.3303 37.5358 35.3303 37.1175C36.3113 27.5352 36.3113 27.772 36.3113 26.817C36.3113 26.1934 36.2559 25.7593 36.2559 25.3725C36.2559 24.8042 37.5771 24.4411 39.2542 24.4411C39.8475 24.4411 40.0532 25.2936 40.1085 26.1224C40.9629 25.1121 42.5451 24.157 44.0957 24.157C45.8835 24.157 46.9673 24.8042 47.355 26.1461C48.154 25.1673 49.839 24.157 51.4924 24.157C53.7945 24.157 54.9099 25.191 54.9099 27.4326C54.9099 28.0009 54.2612 33.7629 54.2612 34.197C54.2612 34.789 54.4906 35.0495 55.0365 35.0495C55.4004 35.0495 55.6852 34.8916 55.788 34.8916C55.9462 34.8916 55.9937 34.9469 55.9937 35.1758C55.9937 35.231 55.97 35.823 55.8117 36.7228L55.8276 36.7386ZM60.9222 37.1017C60.8668 37.6463 60.3289 37.9305 59.2688 37.9305H58.4382C57.2753 37.9305 56.9905 37.67 56.9905 37.1017L57.2199 34.7259C57.2753 34.1812 57.8132 33.8971 58.8733 33.8971H59.7039C60.8194 33.8971 61.1516 34.2049 61.1516 34.7259L60.9222 37.1017Z"/></g><defs><clipPath id="clip0_696_337"><rect width="81" height="60.903" fill="#fff" transform="translate(0.00012207 0.611816)"/></clipPath></defs></svg>